<svg viewBox="0 0 96 96" xmlns="http://www.w3.org/2000/svg" xmlns:xlink="http://www.w3.org/1999/xlink" id="Icons_Trigonometry" overflow="hidden"><path d="M79.247 75 21 16.758 21 9 9 9 9 21 12 21 12 75 9 75 9 87 21 87 21 84 75 84 75 87 87 87 87 75ZM73.761 78 38 78 38 58 18 58 18 22.243ZM13 13 17 13 17 17 13 17ZM17 83 13 83 13 79 17 79ZM18 75 18 64 32 64 32 78 21 78 21 75ZM83 83 79 83 79 79 83 79Z" stroke="none" stroke-width="1" stroke-linecap="butt" stroke-linejoin="miter" stroke-miterlimit="4" fill="#000000" fill-opacity="0.50196"/></svg>